#!OML:ASF F:\VICON\USERDATA\INSTALL\rory3\rory3.ASF
:FULLY-SPECIFIED
:DEGREES
292
root 1.91639 18.13 12.3516 189.943 -80.6668 169.53
lowerback 10.7906 -2.3556 0.736773
upperback 0.290602 -2.93695 3.03219
thorax -5.62445 -1.45551 3.2213
lowerneck 5.57699 -16.5095 -15.0562
upperneck 33.4748 -33.2602 12.1624
head 15.9102 -16.4307 2.26134
rclavicle -3.61788e-014 2.54444e-014
rhumerus -32.9349 -13.1337 -76.9368
rradius 35.949
rwrist 4.21749
rhand -16.678 6.52812
rfingers 7.12502
rthumb 9.54604 -23.2356
lclavicle -3.61788e-014 2.54444e-014
lhumerus -34.644 10.1764 78.4524
lradius 25.0868
lwrist -8.53582
lhand -14.0689 23.0254
lfingers 7.12502
lthumb 12.0627 52.6577
rfemur -4.50806 4.64129 24.0367
rtibia 31.8963
rfoot -12.5813 6.05486
rtoes 11.2754
lfemur -18.0393 -0.933084 -16.903
ltibia 31.088
lfoot -7.09145 1.80601
ltoes -19.9477
293
root 2.02397 18.1381 12.3537 190.722 -81.1942 168.594
lowerback 10.8981 -2.42094 0.652459
upperback 0.300535 -3.03139 3.05014
thorax -5.66453 -1.49926 3.30775
lowerneck 5.70864 -16.5248 -14.9635
upperneck 33.4386 -33.2784 12.1622
head 15.8502 -16.4401 2.26892
rclavicle -5.96354e-015 -1.43125e-014
rhumerus -33.2912 -13.3409 -76.7362
rradius 36.1264
rwrist 4.24363
rhand -16.5319 6.42603
rfingers 7.12502
rthumb 9.687 -23.3312
lclavicle -5.96354e-015 -1.43125e-014
lhumerus -34.4136 9.99945 79
lradius 25.0322
lwrist -8.84419
lhand -15.7966 24.3347
lfingers 7.12502
lthumb 10.3964 54.0577
rfemur -4.80687 4.43078 24.0615
rtibia 32.075
rfoot -12.7004 5.58805
rtoes 9.86378
lfemur -18.0009 -0.347585 -17.1558
ltibia 32.9676
lfoot -7.15279 1.66164
ltoes -19.3542
294
root 2.12477 18.1413 12.3474 191.3 -81.5843 167.886
lowerback 10.8668 -2.43676 0.483783
upperback 0.345207 -3.07433 3.08638
thorax -5.58687 -1.51719 3.44361
lowerneck 5.68358 -16.521 -14.8153
upperneck 33.55 -33.2736 12.083
head 15.8595 -16.4244 2.22373
rclavicle -3.25013e-014 2.70347e-014
rhumerus -33.5303 -13.5863 -76.5722
rradius 36.0943
rwrist 4.30731
rhand -16.8151 6.47502
rfingers 7.12502
rthumb 9.41377 -23.2947
lclavicle -3.25013e-014 2.70347e-014
lhumerus -34.1627 9.57142 79.6141
lradius 25.018
lwrist -8.85079
lhand -17.0822 25.4816
lfingers 7.12502
lthumb 9.15606 55.2628
rfemur -5.15293 4.27278 24.0956
rtibia 32.2988
rfoot -12.419 5.51509
rtoes 10.9264
lfemur -17.899 0.301854 -17.331
ltibia 34.8641
lfoot -7.33987 1.46951
ltoes -19.4506
295
root 2.22469 18.1411 12.3472 192.166 -81.995 166.912
lowerback 10.8037 -2.47431 0.364014
upperback 0.381158 -3.13976 3.14309
thorax -5.50057 -1.54772 3.57534
lowerneck 5.66126 -16.5356 -14.8347
upperneck 33.6093 -33.2284 11.9531
head 15.8535 -16.4087 2.18617
rclavicle 5.86415e-015 1.74931e-014
rhumerus -33.7798 -13.8248 -76.2853
rradius 36.1377
rwrist 4.21188
rhand -17.0204 6.39972
rfingers 7.12502
rthumb 9.21566 -23.3789
lclavicle 5.86415e-015 1.74931e-014
lhumerus -33.9423 8.93433 80.2896
lradius 25.0413
lwrist -8.91078
lhand -17.5508 25.5875
lfingers 7.12502
lthumb 8.70385 55.3881
rfemur -5.54154 4.00845 24.0703
rtibia 32.5295
rfoot -12.0171 5.55539
rtoes 11.796
lfemur -17.8126 0.78257 -17.5166
ltibia 36.7988
lfoot -7.50559 1.24747
ltoes -19.0547
296
root 2.32565 18.1477 12.3502 191.62 -82.5694 167.353
lowerback 10.7933 -2.59844 0.478846
upperback 0.395311 -3.28804 3.29074
thorax -5.46941 -1.62455 3.68741
lowerneck 5.67538 -16.5194 -14.9449
upperneck 33.6297 -33.1532 11.8755
head 15.8475 -16.3907 2.1877
rclavicle 4.23411e-014 -1.11319e-014
rhumerus -34.0526 -13.8289 -75.9986
rradius 36.2851
rwrist 3.69878
rhand -17.0049 6.26299
rfingers 7.12502
rthumb 9.23063 -23.515
lclavicle 4.23411e-014 -1.11319e-014
lhumerus -33.8266 8.05332 81.1435
lradius 25.2631
lwrist -8.41326
lhand -18.3387 25.8783
lfingers 7.12502
lthumb 7.94345 55.709
rfemur -5.86072 4.14163 24.3736
rtibia 32.7097
rfoot -11.7653 5.04403
rtoes 11.7394
lfemur -17.7354 1.19405 -17.426
ltibia 38.7629
lfoot -7.51644 0.65862
ltoes -19.1516
297
root 2.42559 18.1555 12.3558 191.632 -83.0724 167.211
lowerback 10.8013 -2.70161 0.508866
upperback 0.400422 -3.41963 3.3741
thorax -5.45772 -1.69051 3.77839
lowerneck 5.81617 -16.457 -14.9944
upperneck 33.5422 -33.1437 12.0797
head 15.8396 -16.3926 2.28819
rclavicle -7.85199e-015 4.13472e-014
rhumerus -34.3314 -13.9043 -75.7889
rradius 36.2645
rwrist 3.224
rhand -16.8625 6.3154
rfingers 7.12502
rthumb 9.36806 -23.4564
lclavicle -7.85199e-015 4.13472e-014
lhumerus -33.7413 6.80459 82.0517
lradius 25.5504
lwrist -7.42586
lhand -18.7953 26.1791
lfingers 7.12502
lthumb 7.50275 56.0261
rfemur -6.14164 3.96908 24.4994
rtibia 32.8336
rfoot -11.515 4.82626
rtoes 10.8646
lfemur -17.5687 1.49203 -17.4154
ltibia 40.7096
lfoot -7.4303 -0.0271292
ltoes -19.1697
298
root 2.52426 18.1617 12.363 191.257 -83.5463 167.503
lowerback 10.7237 -2.79072 0.651684
upperback 0.413289 -3.52172 3.44972
thorax -5.39868 -1.74569 3.78736
lowerneck 5.87225 -16.4326 -15.0151
upperneck 33.4628 -33.1444 12.2244
head 15.8318 -16.3902 2.35126
rclavicle 3.27995e-014 -2.06736e-014
rhumerus -34.574 -13.9756 -75.5931
rradius 36.1478
rwrist 2.78339
rhand -16.9633 6.21327
rfingers 7.12502
rthumb 9.27075 -23.5629
lclavicle 3.27995e-014 -2.06736e-014
lhumerus -33.4884 6.31448 82.5544
lradius 25.5616
lwrist -7.34525
lhand -18.3208 25.9429
lfingers 7.12502
lthumb 7.96073 55.773
rfemur -6.46974 3.52713 24.6219
rtibia 32.911
rfoot -11.1969 4.83227
rtoes 9.85459
lfemur -17.3836 1.68163 -17.3209
ltibia 42.6017
lfoot -7.24369 -0.765699
ltoes -19.3325
